<svg height="512pt" viewBox="0 0 512 512.001" width="512pt" xmlns="http://www.w3.org/2000/svg"><path d="m502.160156 318.253906c5.019532-20.09375 7.558594-40.796875 7.558594-61.617187 0-67.746094-26.378906-131.433594-74.28125-179.335938-47.902344-47.902343-111.59375-74.285156-179.335938-74.285156-20.578124 0-41.046874 2.484375-60.921874 7.390625-16.949219-6.910156-34.886719-10.40625-53.402344-10.40625-78.175782 0-141.777344 63.601562-141.777344 141.777344 0 18.273437 3.414062 36 10.15625 52.773437-5.097656 20.238281-7.675781 41.097657-7.675781 62.085938 0 67.746093 26.382812 131.4375 74.285156 179.339843 47.902344 47.902344 111.589844 74.28125 179.335937 74.28125 21.234376 0 42.328126-2.640624 62.785157-7.847656 16.359375 6.367188 33.601562 9.589844 51.335937 9.589844 78.175782 0 141.777344-63.601562 141.777344-141.777344 0-17.96875-3.308594-35.425781-9.839844-51.96875zm0 0" fill="#00d7df"/><path d="m509.71875 256.636719c0-67.742188-26.378906-131.433594-74.28125-179.335938-.003906 0-.003906 0-.003906 0l-358.671875 358.671875c47.902343 47.902344 111.59375 74.285156 179.335937 74.285156 21.238282 0 42.332032-2.640624 62.785156-7.851562 16.359376 6.371094 33.605469 9.59375 51.339844 9.59375 78.175782 0 141.777344-63.601562 141.777344-141.777344 0-17.96875-3.308594-35.425781-9.839844-51.96875 5.019532-20.09375 7.558594-40.792968 7.558594-61.617187zm0 0" fill="#00aadf"/><path d="m384.09375 321.921875c0 52.105469-42.390625 94.5-94.5 94.5h-51.988281c-50.074219 0-93.707031-33.882813-106.105469-82.394531-2.246094-8.789063-.328125-17.960938 5.261719-25.15625 5.648437-7.277344 14.167969-11.449219 23.371093-11.449219h20.910157c12.46875 0 23.640625 7.890625 27.792969 19.632813 4.304687 12.183593 15.867187 20.367187 28.769531 20.367187h51.988281c8.546875 0 15.5-6.953125 15.5-15.5v-1.675781c0-7.023438-4.738281-13.183594-11.527344-14.984375l-95.179687-25.230469c-41.382813-10.96875-70.285157-48.53125-70.285157-91.34375v-1.675781c0-52.109375 42.394532-94.5 94.5-94.5h51.992188c50.074219 0 93.707031 33.878906 106.105469 82.394531 2.246093 8.789062.328125 17.957031-5.261719 25.15625-5.648438 7.273438-14.167969 11.449219-23.371094 11.449219h-20.910156c-12.46875 0-23.640625-7.894531-27.792969-19.636719-4.308593-12.179688-15.867187-20.363281-28.769531-20.363281h-51.992188c-8.546874 0-15.5 6.953125-15.5 15.5v1.675781c0 7.019531 4.742188 13.183594 11.53125 14.980469l95.175782 25.234375c41.382812 10.96875 70.285156 48.53125 70.285156 91.34375zm0 0" fill="#fff"/><g fill="#deecf1"><path d="m331.160156 211.511719h20.90625c9.203125 0 17.722656-4.175781 23.371094-11.449219 5.589844-7.199219 7.507812-16.367188 5.261719-25.15625-2.773438-10.851562-7.117188-20.960938-12.738281-30.132812l-57.859376 57.859374c5.433594 5.539063 12.964844 8.878907 21.058594 8.878907zm0 0"/><path d="m313.8125 228.902344-23.699219-6.28125-64.601562 64.601562 68.054687 18.042969c6.789063 1.796875 11.527344 7.960937 11.527344 14.980469v1.675781c0 8.546875-6.953125 15.5-15.5 15.5h-51.988281c-12.902344 0-24.464844-8.183594-28.769531-20.363281-1.105469-3.121094-2.714844-5.957032-4.703126-8.457032l-58.214843 58.214844c19.796875 30.3125 53.902343 49.609375 91.6875 49.609375h51.988281c52.109375 0 94.5-42.394531 94.5-94.5v-1.679687c0-42.8125-28.898438-80.375-70.28125-91.34375zm0 0"/></g></svg>